{"title":"Krampus The Christmas Devil (2013) BRRip XviD AC3-FWOLF","uid":11660467,"size":1356869227,"categoryP":"video","categoryS":"movies","magnet":"?xt=urn:btih:ade1e29254bbc37aabb5daa378b3837e5ddc62eb&amp;dn=Krampus+The+Christmas+Devil+%282013%29+BRRip+XviD+AC3-FWOLF&amp;tr=udp%3A%2F%2Ftracker.openbittorrent.com%3A80&amp;tr=udp%3A%2F%2Fopen.demonii.com%3A1337&amp;tr=udp%3A%2F%2Ftracker.coppersurfer.tk%3A6969&amp;tr=udp%3A%2F%2Fexodus.desync.com%3A6969","seeders":2,"leechers":0,"uploader":"TvTeam","files":5,"time":1417990680,"description":" &lt;a href=&quot;https://www.torrenting.com&quot; rel=&quot;nofollow&quot; target=&quot;_NEW&quot;&gt;https://www.torrenting.com&lt;/a&gt;\n\nSign up is OPEN - for time being. Come and have fun.Krampus The Christmas Devil (2013) BRRip XviD AC3-FWOLF\n\nimdb.... &lt;a href=&quot;\nhttp://www.imdb.com/title/tt2578608/&quot; rel=&quot;nofollow&quot; target=&quot;_NEW&quot;&gt;\nhttp://www.imdb.com/title/tt2578608/&lt;/a&gt;\n\n\nJeremy, a local police officer leads a life of a confusing \npast, spending his current time searching for his kidnapper \nas a child. After other children begin missing, Jeremy \npieces together...\n\n\nDirector: Jason Hull\n\nWriters:  Jason Hull\n\n   \nStars:    Jay Dobyns, Paul Ferm, Andrew Ferrick\n\n\nFormat                                   : AVI\nFormat/Info                              : Audio Video Interleave\nFile size                                : 1.25 GiB\nDuration                                 : 1h 23mn\nOverall bit rate                         : 2 144 Kbps\n\nVideo\nID                                       : 0\nFormat                                   : MPEG-4 Visual\nFormat profile                           : Advanced Simple@L5\nFormat settings, BVOP                    : 2\nFormat settings, QPel                    : Yes\nFormat settings, GMC                     : No warppoints\nFormat settings, Matrix                  : Default (H.263)\nCodec ID                                 : XVID\nCodec ID/Hint                            : XviD\nDuration                                 : 1h 23mn\nBit rate                                 : 1 689 Kbps\nWidth                                    : 720 pixels\nHeight                                   : 400 pixels\nDisplay aspect ratio                     : 16:9\nFrame rate                               : 23.976 fps\nColor space                              : YUV\nChroma subsampling                       : 4:2:0\nBit depth                                : 8 bits\nScan type                                : Progressive\nCompression mode                         : Lossy\nBits/(Pixel*Frame)                       : 0.245\nStream size                              : 1 009 MiB (79%)\nWriting library                          : XviD 1.2.1 (UTC 2008-12-04)\n\nAudio\nID                                       : 1\nFormat                                   : AC-3\nFormat/Info                              : Audio Coding 3\nMode extension                           : CM (complete main)\nFormat settings, Endianness              : Big\nCodec ID                                 : 2000\nDuration                                 : 1h 23mn\nBit rate mode                            : Constant\nBit rate                                 : 448 Kbps\nChannel(s)                               : 2 channels\nChannel positions                        : Front: L R\nSampling rate                            : 48.0 KHz\nBit depth                                : 16 bits\nCompression mode                         : Lossy\nStream size                              : 268 MiB (21%)\nAlignment                                : Aligned on interleaves\nInterleave, duration                     : 64 ms (1.53 video frames)\nInterleave, preload duration             : 192 ms\nTitle                                    : English\n\n\n\n\n\nEncoded....................FWOLF              \n\nSource.....................1080p BluRay iNVANDRAREN (Thanks!)\n\nSample.....................Yes\n\nSubs.......................(srt)No\n\n\n\n\n\n[img]http://s23.postimg.org/8hx8vdn0r/image.png[/img]\n\n\n\n\n[img]http://s28.postimg.org/qwk3d7tpp/image.png[/img]\n\n\n\n\n[img]http://s17.postimg.org/vfeqeecqn/image.png[/img]\n\n\n\n\nGreetz To: PsiX | Blacksheep | CFR | tomcat-12...\n.....and all P2P Encoders and Groups","torrent":{"xt":"urn:btih:ade1e29254bbc37aabb5daa378b3837e5ddc62eb","amp;dn":"Krampus+The+Christmas+Devil+%282013%29+BRRip+XviD+AC3-FWOLF","amp;tr":["udp%3A%2F%2Ftracker.openbittorrent.com%3A80","udp%3A%2F%2Fopen.demonii.com%3A1337","udp%3A%2F%2Ftracker.coppersurfer.tk%3A6969","udp%3A%2F%2Fexodus.desync.com%3A6969"],"infoHash":"ade1e29254bbc37aabb5daa378b3837e5ddc62eb","infoHashBuffer":{"type":"Buffer","data":[173,225,226,146,84,187,195,122,171,181,218,163,120,179,131,126,93,220,98,235]},"announce":[],"urlList":[]}}